<svg width="300" height="167" viewBox="0 0 300 167" fill="none" xmlns="http://www.w3.org/2000/svg">
<g clip-path="url(#clip0_1_11650)">
<path d="M78.6581 52.1268C88.1472 52.1268 95.8396 44.4344 95.8396 34.9454C95.8396 25.4563 88.1472 17.7639 78.6581 17.7639C69.1691 17.7639 61.4767 25.4563 61.4767 34.9454C61.4767 44.4344 69.1691 52.1268 78.6581 52.1268Z" fill="#FF6584"/>
<path d="M132.537 87.8924H48.2503C48.1447 87.8937 48.0393 87.8854 47.9353 87.8674L87.7992 18.8174C88.0425 18.3874 88.3956 18.0296 88.8224 17.7807C89.2492 17.5318 89.7344 17.4006 90.2285 17.4006C90.7226 17.4006 91.2078 17.5318 91.6346 17.7807C92.0615 18.0296 92.4145 18.3874 92.6578 18.8174L119.412 65.1553L120.693 67.3726L132.537 87.8924Z" fill="#3F3D56"/>
<path opacity="0.2" d="M132.537 87.8923H103.76L117.886 67.3725L118.903 65.8944L119.412 65.1555L120.693 67.3725L132.537 87.8923Z" fill="black"/>
<path d="M179.468 87.8924H106.566L120.693 67.3726L121.71 65.8944L140.118 39.1532C141.325 37.4006 144.229 37.2915 145.647 38.8226C145.743 38.9271 145.831 39.0375 145.913 39.1532L179.468 87.8924Z" fill="#3F3D56"/>
<path d="M200.867 76.5327C203.727 76.5327 206.045 74.2147 206.045 71.3553C206.045 68.496 203.727 66.178 200.867 66.178C198.008 66.178 195.69 68.496 195.69 71.3553C195.69 74.2147 198.008 76.5327 200.867 76.5327Z" fill="#4AC2B3"/>
<path d="M201.366 86.95H200.306L200.789 70.5757L201.366 86.95Z" fill="#3F3D56"/>
<path d="M200.883 73.679L202.021 72.1038L200.867 74.0689L200.743 73.8506L200.883 73.679Z" fill="#3F3D56"/>
<path d="M200.758 75.2695L199.62 73.6946L200.774 75.6594L200.898 75.4411L200.758 75.2695Z" fill="#3F3D56"/>
<path d="M248.36 76.5327C251.219 76.5327 253.537 74.2147 253.537 71.3553C253.537 68.496 251.219 66.178 248.36 66.178C245.5 66.178 243.182 68.496 243.182 71.3553C243.182 74.2147 245.5 76.5327 248.36 76.5327Z" fill="#4AC2B3"/>
<path d="M248.859 86.95H247.798L248.282 70.5757L248.859 86.95Z" fill="#3F3D56"/>
<path d="M248.375 73.679L249.514 72.1038L248.36 74.0689L248.235 73.8506L248.375 73.679Z" fill="#3F3D56"/>
<path d="M248.251 75.2695L247.112 73.6946L248.266 75.6594L248.391 75.4411L248.251 75.2695Z" fill="#3F3D56"/>
<path d="M215.865 71.5647C220.088 71.5647 223.512 68.1413 223.512 63.9182C223.512 59.6952 220.088 56.2717 215.865 56.2717C211.642 56.2717 208.219 59.6952 208.219 63.9182C208.219 68.1413 211.642 71.5647 215.865 71.5647Z" fill="#4AC2B3"/>
<path d="M216.602 86.95H215.036L215.75 62.7666L216.602 86.95Z" fill="#3F3D56"/>
<path d="M215.888 67.3496L217.57 65.0237L215.865 67.9257L215.681 67.6031L215.888 67.3496Z" fill="#3F3D56"/>
<path d="M215.704 69.699L214.023 67.373L215.727 70.2747L215.911 69.9525L215.704 69.699Z" fill="#3F3D56"/>
<path d="M234.512 71.5647C238.736 71.5647 242.159 68.1413 242.159 63.9182C242.159 59.6952 238.736 56.2717 234.512 56.2717C230.289 56.2717 226.866 59.6952 226.866 63.9182C226.866 68.1413 230.289 71.5647 234.512 71.5647Z" fill="#4AC2B3"/>
<path d="M235.25 86.95H233.684L234.397 62.7666L235.25 86.95Z" fill="#3F3D56"/>
<path d="M234.536 67.3496L236.217 65.0237L234.512 67.9257L234.328 67.6031L234.536 67.3496Z" fill="#3F3D56"/>
<path d="M234.351 69.699L232.67 67.373L234.374 70.2747L234.558 69.9525L234.351 69.699Z" fill="#3F3D56"/>
<path d="M186.146 71.5647C190.369 71.5647 193.793 68.1413 193.793 63.9182C193.793 59.6952 190.369 56.2717 186.146 56.2717C181.923 56.2717 178.5 59.6952 178.5 63.9182C178.5 68.1413 181.923 71.5647 186.146 71.5647Z" fill="#4AC2B3"/>
<path d="M186.883 86.95H185.317L186.031 62.7666L186.883 86.95Z" fill="#3F3D56"/>
<path d="M186.169 67.3496L187.85 65.0237L186.146 67.9257L185.962 67.6031L186.169 67.3496Z" fill="#3F3D56"/>
<path d="M185.985 69.699L184.303 67.373L186.008 70.2747L186.192 69.9525L185.985 69.699Z" fill="#3F3D56"/>
<path d="M276.612 166.4H27.0719C23.9279 166.4 20.8147 165.781 17.9101 164.578C15.0054 163.375 12.3662 161.611 10.143 159.388C7.91991 157.165 6.15642 154.526 4.95327 151.621C3.75011 148.717 3.13086 145.603 3.13086 142.459C3.13086 139.315 3.75011 136.202 4.95327 133.298C6.15642 130.393 7.91991 127.754 10.143 125.53C12.3662 123.307 15.0054 121.544 17.9101 120.341C20.8147 119.138 23.9279 118.518 27.0719 118.518H276.059C278.501 118.518 280.843 117.548 282.57 115.821C284.297 114.094 285.267 111.752 285.267 109.31C285.267 106.868 284.297 104.526 282.57 102.799C280.843 101.072 278.501 100.102 276.059 100.102H18.7846V85.3691H276.059C282.409 85.3691 288.498 87.8915 292.988 92.3813C297.478 96.8711 300 102.961 300 109.31C300 115.66 297.478 121.749 292.988 126.239C288.498 130.729 282.409 133.251 276.059 133.251H27.0719C24.6298 133.251 22.2877 134.221 20.5608 135.948C18.834 137.675 17.8638 140.017 17.8638 142.459C17.8638 144.902 18.834 147.244 20.5608 148.971C22.2877 150.697 24.6298 151.667 27.0719 151.667H276.612V166.4Z" fill="#E6E6E6"/>
<path d="M39.4107 92.3674H27.9927V93.1041H39.4107V92.3674Z" fill="white"/>
<path d="M71.8232 92.3674H60.4052V93.1041H71.8232V92.3674Z" fill="white"/>
<path d="M104.236 92.3674H92.8176V93.1041H104.236V92.3674Z" fill="white"/>
<path d="M136.648 92.3674H125.23V93.1041H136.648V92.3674Z" fill="white"/>
<path d="M169.061 92.3674H157.643V93.1041H169.061V92.3674Z" fill="white"/>
<path d="M201.473 92.3674H190.055V93.1041H201.473V92.3674Z" fill="white"/>
<path d="M233.886 92.3674H222.468V93.1041H233.886V92.3674Z" fill="white"/>
<path d="M266.298 92.3674H254.88V93.1041H266.298V92.3674Z" fill="white"/>
<path d="M39.4107 125.517H27.9927V126.253H39.4107V125.517Z" fill="white"/>
<path d="M71.8232 125.517H60.4052V126.253H71.8232V125.517Z" fill="white"/>
<path d="M104.236 125.517H92.8176V126.253H104.236V125.517Z" fill="white"/>
<path d="M136.648 125.517H125.23V126.253H136.648V125.517Z" fill="white"/>
<path d="M169.061 125.517H157.643V126.253H169.061V125.517Z" fill="white"/>
<path d="M201.473 125.517H190.055V126.253H201.473V125.517Z" fill="white"/>
<path d="M233.886 125.517H222.468V126.253H233.886V125.517Z" fill="white"/>
<path d="M266.298 125.517H254.88V126.253H266.298V125.517Z" fill="white"/>
<path d="M39.4107 158.666H27.9927V159.402H39.4107V158.666Z" fill="white"/>
<path d="M71.8232 158.666H60.4052V159.402H71.8232V158.666Z" fill="white"/>
<path d="M104.236 158.666H92.8176V159.402H104.236V158.666Z" fill="white"/>
<path d="M136.648 158.666H125.23V159.402H136.648V158.666Z" fill="white"/>
<path d="M169.061 158.666H157.643V159.402H169.061V158.666Z" fill="white"/>
<path d="M201.473 158.666H190.055V159.402H201.473V158.666Z" fill="white"/>
<path d="M233.886 158.666H222.468V159.402H233.886V158.666Z" fill="white"/>
<path d="M266.298 158.666H254.88V159.402H266.298V158.666Z" fill="white"/>
<path d="M200.327 29.2346C201.527 29.2335 202.707 29.5384 203.756 30.1205H196.908C197.953 29.5386 199.131 29.2336 200.327 29.2346Z" fill="#E6E6E6"/>
<path d="M187.039 28.3489C189.042 28.3465 190.998 28.9656 192.635 30.1207H181.45C183.085 28.9669 185.038 28.348 187.039 28.3489Z" fill="#E6E6E6"/>
<path d="M111.766 17.1341C112.009 12.8371 113.77 8.76593 116.735 5.64664C119.701 2.52734 123.678 0.562617 127.957 0.102768C132.236 -0.35708 136.54 0.717833 140.1 3.13586C143.661 5.55389 146.247 9.15786 147.397 13.3052C147.617 13.2973 147.837 13.2885 148.059 13.2885C151.983 13.2892 155.801 14.5603 158.942 16.9116C162.083 19.2629 164.378 22.568 165.484 26.3324C168.084 25.19 170.989 24.9422 173.745 25.6277C176.501 26.3132 178.952 27.8933 180.714 30.1206H124.064C122.411 30.1253 120.774 29.7964 119.252 29.1537C117.729 28.511 116.352 27.5677 115.203 26.3802C114.053 25.1927 113.155 23.7855 112.562 22.2428C111.97 20.7001 111.694 19.0536 111.753 17.402C111.756 17.3128 111.761 17.2236 111.766 17.1341Z" fill="#E6E6E6"/>
<path d="M204.461 42.4944C203.261 42.4933 202.081 42.7982 201.033 43.3803H207.881C206.835 42.7984 205.658 42.4934 204.461 42.4944Z" fill="#E6E6E6"/>
<path d="M217.75 41.6084C215.746 41.6061 213.791 42.2251 212.153 43.3802H223.338C221.703 42.2264 219.751 41.6075 217.75 41.6084Z" fill="#E6E6E6"/>
<path d="M293.023 30.3939C292.78 26.0968 291.018 22.0257 288.053 18.9064C285.087 15.7871 281.111 13.8224 276.831 13.3625C272.552 12.9027 268.248 13.9776 264.688 16.3956C261.127 18.8137 258.541 22.4176 257.391 26.565C257.171 26.5571 256.951 26.5482 256.729 26.5482C252.806 26.549 248.988 27.8201 245.847 30.1713C242.706 32.5226 240.41 35.8277 239.304 39.5922C236.704 38.4498 233.799 38.2019 231.043 38.8874C228.287 39.5729 225.836 41.1531 224.075 43.3804H280.724C282.377 43.385 284.014 43.0562 285.536 42.4135C287.059 41.7708 288.436 40.8274 289.586 39.6399C290.735 38.4525 291.633 37.0452 292.226 35.5025C292.819 33.9598 293.094 32.3134 293.036 30.6617C293.032 30.5726 293.028 30.4833 293.023 30.3939Z" fill="#E6E6E6"/>
<path d="M255.255 156.105L261.839 156.108L261.839 155.063L255.255 155.06L255.255 156.105Z" fill="#3F3D56"/>
<path d="M207.651 155.296L209.01 155.61L260.637 155.637L261.102 154.556C261.911 152.7 262.189 150.657 261.904 148.652C261.682 147.158 261.125 145.674 259.859 145.029L257.568 129.77L229.005 129.719L217.955 138.632C217.955 138.632 212.742 138.538 209.91 142.064C208.888 143.375 208.285 144.963 208.179 146.622L208.067 148.456L207.651 155.296Z" fill="#4AC2B3"/>
<path d="M218.991 161.415C222.512 161.415 225.366 158.561 225.366 155.04C225.366 151.519 222.512 148.665 218.991 148.665C215.47 148.665 212.616 151.519 212.616 155.04C212.616 158.561 215.47 161.415 218.991 161.415Z" fill="#3F3D56"/>
<path d="M218.991 158.396C220.844 158.396 222.346 156.893 222.346 155.04C222.346 153.187 220.844 151.685 218.991 151.685C217.138 151.685 215.635 153.187 215.635 155.04C215.635 156.893 217.138 158.396 218.991 158.396Z" fill="#CCCCCC"/>
<path d="M250.448 161.432C253.969 161.432 256.823 158.578 256.823 155.057C256.823 151.536 253.969 148.682 250.448 148.682C246.927 148.682 244.073 151.536 244.073 155.057C244.073 158.578 246.927 161.432 250.448 161.432Z" fill="#3F3D56"/>
<path d="M250.448 158.412C252.301 158.412 253.803 156.91 253.803 155.057C253.803 153.204 252.301 151.702 250.448 151.702C248.595 151.702 247.093 153.204 247.093 155.057C247.093 156.91 248.595 158.412 250.448 158.412Z" fill="#CCCCCC"/>
<path d="M222.345 137.59L237.767 137.597H239.649L242.828 137.599V137.367L242.83 134.572L242.832 131.434H240.718L238.835 131.432L235.5 131.43H233.618L229.768 131.427L222.345 137.59Z" fill="white"/>
<path d="M245.337 137.601L253.487 137.606L253.489 136.007V133.212L253.492 131.441H252.298L250.416 131.438L245.339 131.436L245.337 137.601Z" fill="white"/>
<path d="M241.78 144.184L242.825 144.184L242.826 142.198L241.781 142.198L241.78 144.184Z" fill="#3F3D56"/>
<path d="M226.523 140.413L226.524 139.368L224.538 139.367L224.538 140.412L226.523 140.413Z" fill="#3F3D56"/>
<path d="M225.792 139.828L225.677 139.828C225.39 139.827 225.106 139.771 224.841 139.661C224.576 139.551 224.336 139.39 224.133 139.187C223.93 138.984 223.769 138.743 223.66 138.478C223.55 138.213 223.494 137.929 223.494 137.642C223.494 137.355 223.551 137.071 223.661 136.806C223.771 136.541 223.932 136.301 224.135 136.098C224.337 135.895 224.578 135.735 224.843 135.625C225.108 135.515 225.393 135.459 225.679 135.459L225.794 135.459L225.792 139.828Z" fill="#3F3D56"/>
<path d="M208.067 148.456C208.857 148.542 209.653 148.346 210.313 147.903C210.973 147.46 211.456 146.799 211.676 146.035C211.896 145.271 211.84 144.454 211.517 143.727C211.194 143.001 210.624 142.412 209.91 142.064C208.888 143.375 208.285 144.963 208.179 146.622L208.067 148.456Z" fill="#3F3D56"/>
<path d="M238.835 131.432L242.828 137.367L242.83 134.572L240.718 131.434L238.835 131.432Z" fill="#F2F2F2"/>
<path d="M250.416 131.438L253.489 136.007V133.211L252.298 131.441L250.416 131.438Z" fill="#F2F2F2"/>
<path d="M233.618 131.429L237.767 137.597H239.649L235.5 131.429H233.618Z" fill="#F2F2F2"/>
<path d="M16.9429 105.259C26.3002 105.259 33.8858 97.6733 33.8858 88.316C33.8858 78.9586 26.3002 71.373 16.9429 71.373C7.5856 71.373 0 78.9586 0 88.316C0 97.6733 7.5856 105.259 16.9429 105.259Z" fill="#3F3D56"/>
<path d="M17.0135 93.4166L8.53464 84.9378C8.25883 84.6613 8.10403 84.2867 8.10425 83.8962C8.10446 83.5058 8.25968 83.1313 8.53579 82.8552C8.81191 82.5791 9.18634 82.4239 9.57683 82.4237C9.96731 82.4235 10.3419 82.5783 10.6183 82.8541L16.8725 89.1082L36.8298 66.35C37.0876 66.0568 37.4512 65.878 37.8407 65.8527C38.2303 65.8274 38.6139 65.9578 38.9075 66.2152C39.201 66.4726 39.3803 66.8359 39.4061 67.2254C39.4319 67.615 39.3021 67.9988 39.0451 68.2927L17.0135 93.4166Z" fill="#4AC2B3"/>
</g>
<defs>
<clipPath id="clip0_1_11650">
<rect width="300" height="166.401" fill="white"/>
</clipPath>
</defs>
</svg>
